# xmcd
#
# Track frame offsets:
#	150
#	22747
#	45270
#
# Disc length: 779 seconds
#
# Revision: 1
# Processed by: cddbd v1.5.1PL0 Copyright (c) Steve Scherf et al.
# Submitted via: CDex 1.50Beta5
#
DISCID=11030903
DTITLE=手塚国光 - 深呼吸〜Dedicate To E〜
DYEAR=1900
DGENRE=Pop
TTITLE0=深呼吸
TTITLE1=深呼吸〜Dedicate To E〜(Instrumental)
TTITLE2=Message
EXTD=
EXTT0=
EXTT1=
EXTT2=
PLAYORDER=
